<svg xmlns="http://www.w3.org/2000/svg" xml:space="preserve" width="1500" height="1500" data-id="lg_UMBnl1Lakx4Ri2U1tt" data-version="1"><path fill="#00d1cd" stroke="transparent" d="M0 0h1500v1500H0z"/><g data-padding="20"><g transform="translate(-670.345 -665.443)scale(1.82689)"><path fill="#fff" stroke="transparent" d="M597.505 974.048v-52.5h12.15q6.15 0 9.23 3.3 3.07 3.3 3.07 9.68v5.17q0 6.38-3.07 9.68-3.08 3.3-9.23 3.3h-3.9v21.37Zm8.25-28.87h3.9q2.03 0 3.04-1.13 1.01-1.12 1.01-3.82v-6.23q0-2.7-1.01-3.82-1.01-1.13-3.04-1.13h-3.9Zm20.7 28.87v-52.5h8.25v21.38h8.85v-21.38h8.25v52.5h-8.25v-23.62h-8.85v23.62Zm43.44.75q-6.08 0-9.3-3.45-3.23-3.45-3.23-9.75v-27.6q0-6.3 3.23-9.75 3.22-3.45 9.3-3.45 6.07 0 9.3 3.45 3.22 3.45 3.22 9.75v27.6q0 6.3-3.22 9.75-3.23 3.45-9.3 3.45m0-7.5q4.27 0 4.27-5.17v-28.65q0-5.18-4.27-5.18-4.28 0-4.28 5.18v28.65q0 5.17 4.28 5.17m24.22 6.75v-45h-8.62v-7.5h25.5v7.5h-8.63v45Zm32.47.75q-6.08 0-9.3-3.45-3.23-3.45-3.23-9.75v-27.6q0-6.3 3.23-9.75 3.22-3.45 9.3-3.45 6.07 0 9.3 3.45 3.22 3.45 3.22 9.75v27.6q0 6.3-3.22 9.75-3.23 3.45-9.3 3.45m0-7.5q4.27 0 4.27-5.17v-28.65q0-5.18-4.27-5.18-4.28 0-4.28 5.18v28.65q0 5.17 4.28 5.17m24.31 6.75v-22.35l-9.98-30.15h8.78l5.62 19.28h.15l5.63-19.28h8.02l-9.97 30.15v22.35Zm32.54.75q-6.08 0-9.3-3.45-3.23-3.45-3.23-9.75v-27.6q0-6.3 3.23-9.75 3.22-3.45 9.3-3.45 6.07 0 9.3 3.45 3.22 3.45 3.22 9.75v27.6q0 6.3-3.22 9.75-3.23 3.45-9.3 3.45m0-7.5q4.27 0 4.27-5.17v-28.65q0-5.18-4.27-5.18-4.28 0-4.28 5.18v28.65q0 5.17 4.28 5.17m30.08 7.51q-6 0-9.15-3.41t-3.15-9.79v-40.05h8.25v40.65q0 2.7 1.09 3.9t3.11 1.2q2.03 0 3.11-1.2 1.09-1.2 1.09-3.9v-40.65h7.95v40.05q0 6.38-3.15 9.79t-9.15 3.41m18.15-.76v-52.5h12.23q6.37 0 9.3 2.97 2.92 2.96 2.92 9.11v3.22q0 8.18-5.4 10.35v.15q3 .9 4.24 3.68 1.24 2.77 1.24 7.42v9.23q0 2.25.15 3.64.15 1.38.75 2.73h-8.4q-.45-1.27-.6-2.4-.15-1.12-.15-4.05v-9.6q0-3.6-1.17-5.02-1.16-1.43-4.01-1.43h-2.85v22.5Zm8.25-30h3q2.48 0 3.71-1.27 1.24-1.28 1.24-4.28v-4.05q0-2.85-1.01-4.12-1.01-1.28-3.19-1.28h-3.75Zm21.98 30v-52.5h11.77l5.25 37.58h.15l5.25-37.58h11.78v52.5h-7.8v-39.75h-.15l-6 39.75h-6.9l-6-39.75h-.15v39.75Zm40.35 0v-52.5h22.5v7.5h-14.25v13.88h11.32v7.5h-11.32v16.12h14.25v7.5Zm25.04 0 8.55-52.5h11.17l8.55 52.5h-8.25l-1.5-10.42v.15h-9.37l-1.5 10.27Zm10.12-17.4h7.43l-3.68-25.95h-.15Zm22.14 17.4v-52.5h8.25v45h13.57v7.5Z"/><rect width="392.06" height="84.75" x="191.685" y="407.148" fill="none" rx="0" ry="0" transform="translate(401.1 503.84)"/><rect width="102.06" height="38.42" x="336.685" y="430.318" fill="none" rx="0" ry="0" transform="translate(400.61 566.39)"/><path fill="#fff" d="M797.561 619.072c-9.552-18.567-32.178-24.617-51.043-19.303 4.915 18.805 20.696 34.148 41.113 34.188q-9.97 9.75-.756 18.427c5.652-13.571 18.547-28.397 31.084-35.959l-7.761-9.97a89.6 89.6 0 0 0-12.637 12.617"/><path fill="#fff" d="M822.387 641.47c-16.418 0-29.472 8.457-35.502 21.73-6.01-13.273-19.084-21.73-35.502-21.73-83.838 0-52.894 161.309 21.81 151.04 6.409-.895 10.767-3.024 13.692-6.07 2.925 3.046 7.283 5.175 13.691 6.05 74.705 10.289 105.67-151.02 21.81-151.02m-76.813 28.974a27.58 27.58 0 0 0-14.846 36.019 5.393 5.393 0 1 1-9.95 4.159 38.407 38.407 0 0 1 20.636-50.148 5.397 5.397 0 0 1 4.14 9.97"/><path fill="#002a29" d="M787.715 887.188A180.5 180.5 0 0 1 607.43 706.903c.127-99.535 80.75-180.2 180.285-180.285 99.535.128 180.2 80.75 180.285 180.285a180.5 180.5 0 0 1-180.285 180.285m0-339.745A159.587 159.587 0 0 0 628.34 706.861a159.545 159.545 0 0 0 159.375 159.375A159.545 159.545 0 0 0 947.09 706.86a159.587 159.587 0 0 0-159.375-159.333" vector-effect="non-scaling-stroke"/><circle cx="91.227" cy="105.771" r="1.6" fill="#002a29" transform="translate(400.01 110.92)scale(4.25)" vector-effect="non-scaling-stroke"/><path fill="#002a29" d="M787.695 568.213a7.778 7.778 0 1 1 0-15.512 7.778 7.778 0 0 1 0 15.512m0-13.77a6.035 6.035 0 0 0 0 12.028 6.035 6.035 0 0 0 0-12.028" vector-effect="non-scaling-stroke"/><circle cx="91.227" cy="105.771" r="1.5" fill="#002a29" transform="translate(333.45 142.12)scale(4.25)" vector-effect="non-scaling-stroke"/><path fill="#002a29" d="M675.6 634.96a6.253 6.253 0 1 1-5.61 11.178 6.253 6.253 0 0 1 5.61-11.177" vector-effect="non-scaling-stroke"/><circle cx="91.227" cy="105.771" r="1.6" fill="#002a29" transform="translate(253.54 257.39)scale(4.25)" vector-effect="non-scaling-stroke"/><path fill="#002a29" d="M641.28 714.628a7.756 7.756 0 1 1 0-15.512 7.756 7.756 0 0 1 0 15.512m0-13.727c-3.315 0-6.035 2.677-6.035 5.95a6.035 6.035 0 0 0 12.027 0c0-3.273-2.677-5.95-5.992-5.95m28.072 67.117a6.248 6.248 0 1 1 6.885 10.413 6.248 6.248 0 0 1-6.885-10.413m46.38 50.99a6.248 6.248 0 1 1 0 .043m65.108 34.317a6.885 6.885 0 1 1 13.77 0 6.885 6.885 0 0 1-13.77 0" vector-effect="non-scaling-stroke"/><path fill="#002a29" d="M787.735 847.386a6.014 6.014 0 1 0 0 12.027 6.014 6.014 0 0 0 0-12.027m61.137-22.08a6.215 6.215 0 1 1 10.795-6.163 6.215 6.215 0 0 1-10.795 6.163m50.968-46.44a6.255 6.255 0 1 1 6.247-10.838 6.255 6.255 0 0 1-6.247 10.838m34.33-65.068a6.885 6.885 0 1 1 0-13.77 6.885 6.885 0 0 1 0 13.77" vector-effect="non-scaling-stroke"/><path fill="#002a29" d="M934.2 714.638a7.778 7.778 0 0 1-5.483-13.175q2.295-2.252 5.525-2.295a7.735 7.735 0 0 1 0 15.47m.043-13.727a5.95 5.95 0 0 0-6.035 5.992 5.993 5.993 0 1 0 5.992-6.035m-28.155-55.142a6.255 6.255 0 1 1-6.247-10.838 6.255 6.255 0 0 1 6.247 10.838m-46.42-50.938a6.253 6.253 0 1 1-11.177-5.61 6.253 6.253 0 0 1 11.177 5.61" vector-effect="non-scaling-stroke"/></g><path fill="transparent" stroke="transparent" stroke-width="1.919" d="M351.727 250h796.546v1000H351.727z"/></g></svg>